<?xml version="1.0" standalone="no"?>
<!DOCTYPE svg PUBLIC "-//W3C//DTD SVG 20010904//EN"
 "http://www.w3.org/TR/2001/REC-SVG-20010904/DTD/svg10.dtd">
<svg version="1.0" xmlns="http://www.w3.org/2000/svg"
 width="2096.000000pt" height="2096.000000pt" viewBox="0 0 2096.000000 2096.000000"
 preserveAspectRatio="xMidYMid meet">
<metadata>
Created by potrace 1.14, written by Peter Selinger 2001-2017
</metadata>
<g transform="translate(0.000000,2096.000000) scale(0.100000,-0.100000)"
fill="#000000" stroke="none">
<path d="M7752 13658 c-99 -39 -137 -89 -242 -323 -12 -27 -38 -84 -57 -125
-19 -41 -55 -120 -80 -175 -25 -55 -57 -127 -73 -160 -15 -33 -43 -94 -63
-135 -19 -41 -45 -97 -57 -125 -12 -27 -36 -79 -52 -115 -17 -36 -54 -117 -83
-180 -28 -63 -64 -140 -78 -170 -14 -30 -36 -80 -50 -110 -14 -30 -39 -86 -57
-125 -17 -38 -43 -95 -57 -125 -14 -30 -37 -82 -53 -115 -15 -33 -42 -91 -60
-130 -18 -38 -47 -102 -66 -142 -19 -39 -34 -74 -34 -77 0 -2 -18 -44 -41 -93
-53 -113 -91 -195 -119 -258 -40 -90 -91 -200 -101 -217 -5 -10 -9 -24 -9 -32
0 -8 -3 -16 -7 -18 -12 -5 -54 -98 -61 -133 -12 -59 -5 -173 12 -200 9 -14 14
-25 11 -25 -5 0 4 -12 53 -66 30 -32 86 -66 141 -83 23 -7 345 -11 1014 -11
539 0 982 -2 985 -5 3 -3 6 -576 7 -1273 l1 -1267 21 -47 c47 -102 142 -172
253 -185 70 -8 176 27 229 77 47 42 87 111 97 167 4 21 8 668 8 1438 1 1452 1
1468 -39 1545 -16 32 -91 110 -105 110 -5 0 -15 6 -22 13 -33 32 -99 34 -965
35 -477 0 -883 1 -900 1 l-33 1 24 53 c13 28 36 79 52 112 15 33 28 62 29 65
1 3 11 28 24 55 13 28 41 88 62 133 22 46 39 85 39 87 0 2 27 60 60 130 33 70
60 128 60 131 0 2 17 41 39 87 21 45 46 100 56 122 10 22 31 66 46 99 16 32
29 64 29 72 0 8 5 14 10 14 6 0 10 7 10 14 0 8 10 34 23 58 13 24 30 61 39 83
16 39 46 105 135 295 25 52 46 101 47 108 1 7 8 18 14 24 7 7 12 16 12 21 0 4
11 32 24 60 13 29 52 113 86 187 33 74 70 153 80 175 10 22 37 81 60 130 95
203 106 273 64 377 -17 40 -104 151 -104 132 0 -4 -8 -1 -17 8 -57 47 -185 59
-271 26z"/>
<path d="M11597 13654 c-1 -1 -48 -5 -104 -8 -56 -4 -112 -9 -125 -11 -13 -2
-45 -6 -73 -10 -27 -3 -59 -8 -70 -10 -11 -3 -31 -7 -45 -9 -63 -11 -137 -27
-174 -37 -23 -6 -52 -13 -66 -16 -38 -7 -251 -74 -295 -93 -11 -5 -45 -19 -75
-30 -30 -12 -62 -26 -70 -31 -8 -5 -22 -12 -30 -15 -8 -3 -28 -12 -45 -20 -16
-8 -33 -13 -36 -12 -4 2 -15 -4 -25 -12 -11 -8 -41 -26 -69 -40 -27 -14 -52
-27 -55 -30 -3 -3 -25 -16 -50 -29 -186 -100 -446 -305 -624 -490 -96 -100
-95 -99 -146 -161 -43 -52 -50 -61 -76 -93 -35 -42 -93 -137 -103 -169 -12
-36 -16 -110 -8 -153 18 -102 105 -196 212 -227 132 -39 256 7 343 127 21 28
44 59 53 70 157 190 292 321 443 430 16 11 33 25 40 30 6 6 29 22 51 35 22 13
42 27 45 30 16 19 275 154 385 200 83 35 297 103 361 114 13 3 32 7 42 10 9 3
33 7 52 10 19 3 46 8 60 11 14 3 43 7 65 10 22 3 60 8 85 11 98 14 488 6 580
-11 14 -3 48 -8 75 -11 28 -4 54 -9 58 -11 5 -3 23 -7 40 -10 18 -2 46 -8 62
-13 17 -5 41 -11 55 -14 36 -6 186 -54 245 -78 28 -12 68 -28 90 -37 141 -57
450 -239 548 -322 15 -13 42 -35 59 -49 37 -28 283 -272 312 -309 60 -77 170
-229 187 -260 11 -20 31 -54 44 -76 23 -39 119 -225 120 -235 1 -3 7 -18 15
-35 28 -64 39 -93 64 -169 33 -100 56 -188 72 -270 2 -16 6 -32 8 -35 2 -3 7
-28 11 -56 4 -27 8 -61 10 -75 28 -194 23 -502 -10 -687 -13 -76 -37 -190 -42
-203 -3 -8 -8 -23 -9 -33 -7 -32 -61 -191 -88 -257 -80 -192 -180 -367 -307
-537 -75 -98 -291 -324 -363 -378 -22 -17 -48 -38 -58 -47 -10 -10 -22 -18
-27 -18 -5 0 -11 -4 -13 -8 -4 -12 -125 -92 -137 -92 -6 0 -11 -4 -11 -8 0 -5
-24 -21 -52 -37 -29 -15 -61 -35 -70 -43 -10 -8 -18 -12 -18 -8 0 4 -13 -2
-29 -13 -15 -11 -31 -18 -35 -14 -3 3 -6 1 -6 -5 0 -7 -5 -12 -11 -12 -5 0
-36 -13 -67 -28 -31 -16 -59 -29 -62 -30 -3 0 -17 -5 -31 -11 -126 -47 -270
-92 -342 -107 -10 -2 -26 -5 -35 -8 -9 -3 -35 -8 -57 -12 -22 -3 -43 -8 -46
-9 -3 -2 -30 -7 -60 -10 -30 -3 -80 -9 -112 -14 -58 -8 -491 -6 -537 3 -14 2
-47 7 -75 11 -27 4 -59 9 -70 11 -11 2 -31 6 -45 9 -43 8 -62 13 -160 40 -117
32 -109 30 -143 43 -16 7 -31 12 -35 12 -9 0 -137 52 -202 82 -81 37 -138 54
-177 53 -61 -3 -123 -16 -123 -26 0 -6 -4 -8 -9 -4 -6 3 -34 -14 -63 -38 -148
-120 -153 -336 -10 -464 23 -21 74 -48 197 -104 28 -12 55 -24 60 -25 6 -1 51
-18 102 -38 78 -30 112 -41 188 -62 6 -2 35 -10 65 -19 71 -20 236 -56 276
-59 17 -2 39 -6 50 -9 10 -3 48 -9 84 -13 36 -4 83 -9 105 -11 22 -2 702 -5
1510 -7 1619 -2 1538 -5 1627 60 49 36 108 120 108 154 0 10 4 21 8 24 18 11
4 135 -21 189 -23 50 -79 117 -98 117 -5 0 -9 4 -9 8 0 13 -69 42 -115 48 -22
3 -202 5 -400 5 -198 -1 -369 -1 -380 -1 -11 0 -41 0 -67 0 -26 0 -50 5 -53
10 -3 6 -2 10 4 10 5 0 16 6 23 13 7 6 40 34 73 62 85 69 266 249 323 318 26
33 54 66 63 75 9 10 36 44 60 77 24 33 46 62 49 65 23 23 200 313 200 329 0 6
5 11 10 11 6 0 10 5 10 11 0 6 22 57 49 112 26 56 52 113 56 127 4 14 11 30
15 35 4 6 24 62 45 125 20 63 39 122 42 130 3 8 7 20 8 25 2 6 8 30 15 55 7
25 14 53 16 63 2 10 5 26 8 35 3 9 7 28 10 42 6 36 18 102 23 125 2 11 6 38 9
60 3 22 7 49 9 60 17 84 24 461 11 590 -14 138 -18 171 -21 185 -2 8 -7 38
-11 65 -3 28 -8 59 -11 70 -2 11 -7 36 -9 55 -3 19 -10 40 -16 47 -6 7 -8 13
-5 13 7 0 -15 86 -55 215 -34 114 -98 277 -134 348 -14 26 -22 47 -18 47 3 0
2 6 -4 13 -5 6 -25 41 -44 77 -54 102 -99 179 -109 186 -5 3 -7 9 -4 13 2 5
-4 16 -15 26 -11 10 -20 22 -20 27 0 10 -127 189 -145 203 -6 6 -14 15 -16 21
-15 41 -317 353 -434 448 -84 68 -81 66 -125 96 -19 14 -39 31 -43 38 -4 6
-14 12 -22 12 -7 0 -15 3 -17 8 -4 10 -96 72 -107 72 -4 0 -16 9 -26 20 -10
11 -22 20 -26 20 -5 0 -32 14 -61 31 -99 59 -275 144 -398 193 -25 10 -56 23
-70 29 -52 21 -159 57 -184 62 -10 3 -35 10 -55 16 -19 7 -42 13 -51 14 -8 1
-22 4 -30 8 -8 3 -51 13 -95 22 -44 9 -87 18 -95 19 -130 28 -352 48 -538 50
-74 1 -134 1 -135 0z"/>
</g>
</svg>
